<?xml version="1.0" encoding="utf-8"?>
<!-- Generator: Adobe Illustrator 17.0.0, SVG Export Plug-In . SVG Version: 6.00 Build 0)  -->
<!DOCTYPE svg PUBLIC "-//W3C//DTD SVG 1.1//EN" "http://www.w3.org/Graphics/SVG/1.1/DTD/svg11.dtd">
<svg version="1.1" id="Capa_1" xmlns="http://www.w3.org/2000/svg" xmlns:xlink="http://www.w3.org/1999/xlink" x="0px" y="0px"
	 width="206px" height="72px" viewBox="0 0 206 72" enable-background="new 0 0 206 72" xml:space="preserve">
<path fill="#3498DB" d="M30.704,30.606h0.565v-2.354h0.804l0.791-6.247h-9.673v15.018c0,2.563-1.168,3.999-2.158,4.761
	c-1.134,0.897-2.557,1.352-4.229,1.352c-1.673,0-3.103-0.46-4.26-1.376c-0.97-0.746-2.127-2.173-2.127-4.737V22.005H0.688v15.018
	c0,3.803,1.048,7.004,3.187,9.731h0.043V45.63h3.366v2.886h0.412v1.777c0.562,0.373,1.145,0.701,1.746,0.992v-0.549h0.109v-1.923
	h0.366v1.923h0.555v0.819h2.101v0.839c0.39,0.092,0.788,0.169,1.193,0.234v-0.04h1.486v-3.552h0.556v-2.72h2.873v2.72h0.556v2.505
	h3.091v0.508c0.334-0.108,0.66-0.228,0.981-0.357v-0.768h0.824v-0.981h2.324c0.98-0.717,1.894-1.564,2.741-2.551l0.279-0.325h1.225
	V30.606z"/>
<path fill="#00B16A" d="M67.09,33.269c0-4.748-1.638-8.695-5.009-12.067c-3.372-3.371-7.307-5.009-12.032-5.009
	c-5.035,0-9.154,1.81-12.59,5.532l-0.277,0.3h-3.995l0.788,6.228h0.937v2.354h0.449v21.689h0.531v0.848h0.727v2.665h0.394v-0.666
	h0.848v-0.734h1.575v-3.036h0.817v-0.348v-0.818h0.787V47.48h0.378v-0.787h1.166v0.787h1.105v-0.379h0.833v0.379h0.606v3.543h0.394
	v-0.182v-0.878h1.12v0.878h0.79v0.747h0.408l0.408,0.706v0.458c0.577,0.085,1.175,0.131,1.803,0.131c0.005,0,0.009,0,0.014,0v-3.163
	h3.603v1.65h1.332V52.2c0.152-0.045,0.301-0.096,0.451-0.146l0.002,0.011c4.157-1.028,7.047-4.23,8.705-6.656
	c0.161-0.228,0.317-0.458,0.464-0.692v-0.015c0.091-0.144,0.176-0.283,0.256-0.417v0.01c0.023-0.039,0.042-0.08,0.065-0.12
	c0.602-1.016,0.852-1.705,0.852-1.705c0.865-2.033,1.297-4.243,1.297-6.663V33.269z M50.048,43.155c-2.009,0-3.755-0.727-5.188-2.16
	c-1.433-1.433-2.16-3.178-2.16-5.187v-2.538c0-2.009,0.727-3.754,2.155-5.181c1.439-1.414,3.186-2.131,5.193-2.131
	c1.983,0,3.715,0.713,5.141,2.113c1.441,1.442,2.172,3.191,2.172,5.2v2.538c0,2.009-0.727,3.754-2.161,5.187
	C53.768,42.428,52.034,43.155,50.048,43.155z"/>
<g>
	<path fill="#5B5B5B" d="M83.859,32.53c0,0.97-0.35,1.77-1.068,2.449c-0.73,0.689-1.595,1.025-2.646,1.025
		c-1.052,0-1.917-0.336-2.647-1.025c-0.718-0.678-1.068-1.479-1.068-2.448V20.585h-3.863V32.53c0,1.999,0.756,3.714,2.239,5.089
		c1.455,1.401,3.251,2.111,5.339,2.111c2.078,0,3.88-0.709,5.358-2.106c1.474-1.391,2.22-3.104,2.22-5.094V20.585h-3.864V32.53z"/>
	<polygon fill="#5B5B5B" points="100.691,32.543 92.413,20.585 88.872,20.585 88.872,39.73 92.736,39.73 92.736,27.793 
		101.013,39.73 104.554,39.73 104.554,20.585 100.691,20.585 	"/>
	<path fill="#5B5B5B" d="M120.178,20.585h-8.205V39.73h3.864v-5.336h4.341c1.994,0,3.719-0.676,5.132-2.012
		c1.423-1.345,2.144-2.995,2.144-4.905c0-1.893-0.721-3.535-2.144-4.88C123.897,21.261,122.172,20.585,120.178,20.585z
		 M120.178,30.667h-4.341v-6.355h4.341c0.954,0,1.768,0.313,2.421,0.929c0.667,0.631,0.992,1.362,0.992,2.236
		c0,0.873-0.325,1.604-0.999,2.243C121.946,30.348,121.135,30.667,120.178,30.667z"/>
	<polygon fill="#5B5B5B" points="132.467,20.585 128.604,20.585 128.604,39.73 140.622,39.73 140.622,36.004 132.467,36.004 	"/>
	<path fill="#5B5B5B" d="M150.17,20.585l-8.777,19.145h4.225l2.184-4.744h8.363l2.159,4.744h4.227l-8.777-19.145H150.17z
		 M154.443,31.259h-4.916l2.457-5.377L154.443,31.259z"/>
	<polygon fill="#5B5B5B" points="167.287,29.102 163.404,20.585 159.17,20.585 165.352,33.866 165.352,39.73 169.216,39.73 
		169.216,33.868 175.452,20.585 171.217,20.585 	"/>
	<polygon fill="#5B5B5B" points="176.212,39.73 188.23,39.73 188.23,36.004 180.075,36.004 180.075,32.021 185.721,32.021 
		185.721,28.294 180.075,28.294 180.075,24.312 188.23,24.312 188.23,20.585 176.212,20.585 	"/>
	<path fill="#5B5B5B" d="M200.385,33.864c1.138-0.449,2.108-1.147,2.889-2.085c1.055-1.259,1.588-2.707,1.588-4.302
		c0-1.893-0.721-3.535-2.144-4.88c-1.413-1.335-3.139-2.012-5.132-2.012h-8.205V39.73h3.864v-5.336h2.595l4.467,5.336h5.007
		L200.385,33.864z M193.244,24.312h4.341c0.954,0,1.768,0.313,2.421,0.929c0.667,0.631,0.992,1.362,0.992,2.236
		c0,0.873-0.325,1.604-0.999,2.243c-0.645,0.628-1.457,0.947-2.413,0.947h-4.341V24.312z"/>
</g>
<g>
	<path fill="#777777" d="M74.643,49.288c0.518,0.528,1.152,0.791,1.893,0.791s1.376-0.263,1.893-0.791l0.693,0.693
		c-0.712,0.712-1.571,1.074-2.586,1.074c-1.005,0-1.874-0.361-2.586-1.074c-0.712-0.712-1.074-1.581-1.074-2.586
		c0-1.015,0.361-1.874,1.074-2.586c0.712-0.712,1.581-1.074,2.586-1.074c1.015,0,1.874,0.361,2.586,1.074l-0.693,0.693
		c-0.517-0.528-1.152-0.791-1.893-0.791s-1.376,0.263-1.893,0.791c-0.527,0.516-0.79,1.151-0.79,1.893
		C73.853,48.137,74.117,48.772,74.643,49.288z"/>
	<path fill="#777777" d="M80.593,46.175l0.489,0.489c0.439-0.323,0.927-0.489,1.463-0.489v0.976c-0.4,0-0.751,0.146-1.034,0.43
		c-0.283,0.282-0.429,0.633-0.429,1.034v2.44h-0.976v-4.879H80.593z"/>
	<path fill="#777777" d="M86.302,49.649l0.693,0.693c-0.478,0.478-1.054,0.712-1.727,0.712s-1.249-0.234-1.727-0.712
		c-0.478-0.478-0.712-1.055-0.712-1.727s0.234-1.249,0.712-1.727c0.478-0.478,1.054-0.712,1.727-0.712s1.249,0.234,1.727,0.712
		c0.615,0.625,0.84,1.366,0.674,2.216h-3.787c0.078,0.205,0.195,0.389,0.352,0.546c0.283,0.284,0.634,0.43,1.034,0.43
		S86.019,49.933,86.302,49.649z M84.233,47.581c-0.157,0.165-0.274,0.341-0.352,0.546h2.772c-0.068-0.205-0.186-0.38-0.351-0.546
		c-0.283-0.284-0.635-0.43-1.035-0.43S84.516,47.297,84.233,47.581z"/>
	<path fill="#777777" d="M91.129,51.055c-0.674,0-1.249-0.234-1.727-0.712s-0.712-1.055-0.712-1.727s0.234-1.249,0.712-1.727
		c0.478-0.478,1.054-0.712,1.727-0.712c0.537,0,1.025,0.165,1.464,0.489v-0.489h0.976v4.879h-0.488l-0.488-0.489
		C92.164,50.889,91.675,51.055,91.129,51.055z M91.129,50.079c0.4,0,0.752-0.146,1.035-0.43c0.283-0.282,0.429-0.633,0.429-1.034
		s-0.146-0.752-0.429-1.034c-0.283-0.284-0.635-0.43-1.035-0.43s-0.751,0.146-1.034,0.43c-0.283,0.282-0.429,0.633-0.429,1.034
		s0.146,0.752,0.429,1.034C90.378,49.933,90.729,50.079,91.129,50.079z"/>
	<path fill="#777777" d="M96.982,51.055c-0.674,0-1.249-0.234-1.727-0.712c-0.478-0.478-0.712-1.055-0.712-1.727
		s0.234-1.249,0.712-1.727c0.478-0.478,1.054-0.712,1.727-0.712c0.537,0,1.025,0.165,1.464,0.489v-2.928h0.976v7.319h-0.488
		l-0.488-0.489C98.016,50.889,97.528,51.055,96.982,51.055z M96.982,50.079c0.4,0,0.752-0.146,1.035-0.43
		c0.283-0.282,0.429-0.633,0.429-1.034s-0.146-0.752-0.429-1.034c-0.283-0.284-0.635-0.43-1.035-0.43s-0.751,0.146-1.034,0.43
		c-0.283,0.282-0.429,0.633-0.429,1.034s0.146,0.752,0.429,1.034C96.231,49.933,96.582,50.079,96.982,50.079z"/>
	<path fill="#777777" d="M102.834,51.055c-0.674,0-1.249-0.234-1.727-0.712c-0.478-0.478-0.712-1.055-0.712-1.727
		s0.234-1.249,0.712-1.727c0.478-0.478,1.054-0.712,1.727-0.712c0.537,0,1.025,0.165,1.464,0.489v-0.489h0.976v4.879h-0.488
		l-0.488-0.489C103.869,50.889,103.381,51.055,102.834,51.055z M102.834,50.079c0.4,0,0.752-0.146,1.035-0.43
		c0.283-0.282,0.429-0.633,0.429-1.034s-0.146-0.752-0.429-1.034c-0.283-0.284-0.635-0.43-1.035-0.43s-0.751,0.146-1.034,0.43
		c-0.283,0.282-0.429,0.633-0.429,1.034s0.146,0.752,0.429,1.034C102.083,49.933,102.434,50.079,102.834,50.079z"/>
	<path fill="#777777" d="M111.126,46.175c0.673,0,1.249,0.234,1.727,0.712c0.478,0.478,0.712,1.055,0.712,1.727
		s-0.234,1.249-0.712,1.727c-0.478,0.478-1.055,0.712-1.727,0.712c-0.537,0-1.025-0.165-1.464-0.489v2.928h-0.976v-7.319h0.487
		l0.489,0.489C110.092,46.341,110.579,46.175,111.126,46.175z M111.126,47.151c-0.401,0-0.752,0.146-1.034,0.43
		c-0.284,0.282-0.43,0.633-0.43,1.034s0.146,0.752,0.43,1.034c0.282,0.284,0.633,0.43,1.034,0.43c0.399,0,0.752-0.146,1.034-0.43
		c0.284-0.282,0.43-0.633,0.43-1.034s-0.146-0.752-0.43-1.034C111.878,47.297,111.525,47.151,111.126,47.151z"/>
	<path fill="#777777" d="M116.979,46.175c0.673,0,1.249,0.234,1.727,0.712c0.478,0.478,0.712,1.055,0.712,1.727
		s-0.234,1.249-0.712,1.727c-0.478,0.478-1.055,0.712-1.727,0.712c-0.674,0-1.249-0.234-1.727-0.712
		c-0.478-0.478-0.712-1.055-0.712-1.727s0.234-1.249,0.712-1.727C115.73,46.409,116.305,46.175,116.979,46.175z M116.979,50.079
		c0.399,0,0.752-0.146,1.034-0.43c0.284-0.282,0.43-0.633,0.43-1.034s-0.146-0.752-0.43-1.034c-0.282-0.284-0.635-0.43-1.034-0.43
		c-0.401,0-0.752,0.146-1.034,0.43c-0.284,0.282-0.43,0.633-0.43,1.034s0.146,0.752,0.43,1.034
		C116.227,49.933,116.578,50.079,116.979,50.079z"/>
	<path fill="#777777" d="M120.88,46.175l0.489,0.489c0.439-0.323,0.926-0.489,1.463-0.489v0.976c-0.399,0-0.75,0.146-1.034,0.43
		c-0.282,0.282-0.429,0.633-0.429,1.034v2.44h-0.977v-4.879H120.88z"/>
	<path fill="#777777" d="M126.918,53.494l1.055-2.44l-2.118-4.879h1.063l1.591,3.649l1.571-3.649h1.063l-3.162,7.319H126.918z"/>
	<path fill="#777777" d="M136.995,46.175c0.673,0,1.249,0.234,1.727,0.712c0.478,0.478,0.712,1.055,0.712,1.727
		s-0.234,1.249-0.712,1.727s-1.055,0.712-1.727,0.712c-0.537,0-1.025-0.165-1.464-0.489v2.928h-0.976v-7.319h0.487l0.489,0.489
		C135.961,46.341,136.448,46.175,136.995,46.175z M136.995,47.151c-0.401,0-0.752,0.146-1.034,0.43
		c-0.284,0.282-0.43,0.633-0.43,1.034s0.146,0.752,0.43,1.034c0.282,0.284,0.633,0.43,1.034,0.43c0.399,0,0.752-0.146,1.034-0.43
		c0.284-0.282,0.43-0.633,0.43-1.034s-0.146-0.752-0.43-1.034C137.747,47.297,137.394,47.151,136.995,47.151z"/>
	<path fill="#777777" d="M142.848,51.055c-0.674,0-1.249-0.234-1.727-0.712c-0.478-0.478-0.712-1.055-0.712-1.727
		s0.234-1.249,0.712-1.727c0.478-0.478,1.053-0.712,1.727-0.712c0.537,0,1.024,0.165,1.464,0.489v-0.489h0.976v4.879H144.8
		l-0.487-0.489C143.883,50.889,143.394,51.055,142.848,51.055z M142.848,50.079c0.399,0,0.752-0.146,1.034-0.43
		c0.284-0.282,0.43-0.633,0.43-1.034s-0.146-0.752-0.43-1.034c-0.282-0.284-0.635-0.43-1.034-0.43c-0.401,0-0.752,0.146-1.034,0.43
		c-0.284,0.282-0.43,0.633-0.43,1.034s0.146,0.752,0.43,1.034C142.097,49.933,142.448,50.079,142.848,50.079z"/>
	<path fill="#777777" d="M146.749,46.175l0.489,0.489c0.439-0.323,0.926-0.489,1.463-0.489v0.976c-0.399,0-0.75,0.146-1.034,0.43
		c-0.282,0.282-0.429,0.633-0.429,1.034v2.44h-0.977v-4.879H146.749z"/>
	<path fill="#777777" d="M151.529,51.055c-0.673,0-1.249-0.234-1.727-0.712s-0.712-1.055-0.712-1.727s0.234-1.249,0.712-1.727
		c0.478-0.478,1.055-0.712,1.727-0.712c0.537,0,1.025,0.165,1.464,0.489v-0.489h0.976v4.879h-0.487l-0.489-0.489
		C152.565,50.889,152.076,51.055,151.529,51.055z M151.529,50.079c0.401,0,0.752-0.146,1.036-0.43
		c0.282-0.282,0.429-0.633,0.429-1.034s-0.146-0.752-0.429-1.034c-0.284-0.284-0.635-0.43-1.036-0.43
		c-0.399,0-0.75,0.146-1.034,0.43c-0.282,0.282-0.429,0.633-0.429,1.034s0.146,0.752,0.429,1.034
		C150.779,49.933,151.13,50.079,151.529,50.079z"/>
	<path fill="#777777" d="M158.358,43.736v7.319h-0.977v-7.319H158.358z"/>
	<path fill="#777777" d="M161.772,46.175c0.674,0,1.249,0.234,1.727,0.712c0.478,0.478,0.712,1.055,0.712,1.727
		s-0.234,1.249-0.712,1.727c-0.478,0.478-1.053,0.712-1.727,0.712c-0.673,0-1.249-0.234-1.727-0.712s-0.712-1.055-0.712-1.727
		s0.234-1.249,0.712-1.727C160.523,46.409,161.099,46.175,161.772,46.175z M161.772,50.079c0.401,0,0.752-0.146,1.036-0.43
		c0.282-0.282,0.429-0.633,0.429-1.034s-0.146-0.752-0.429-1.034c-0.284-0.284-0.635-0.43-1.036-0.43
		c-0.399,0-0.75,0.146-1.034,0.43c-0.282,0.282-0.429,0.633-0.429,1.034s0.146,0.752,0.429,1.034
		C161.021,49.933,161.372,50.079,161.772,50.079z"/>
	<path fill="#777777" d="M165.244,47.951c-0.108-0.391-0.069-0.761,0.136-1.122c0.255-0.468,0.654-0.712,1.191-0.731
		c0.528-0.029,0.957,0.176,1.289,0.604l-0.81,0.537c-0.098-0.126-0.234-0.195-0.42-0.184c-0.184,0.009-0.312,0.097-0.391,0.243
		c-0.067,0.127-0.088,0.254-0.059,0.382c0.029,0.126,0.108,0.224,0.234,0.282l0.81,0.439c0.361,0.196,0.595,0.489,0.704,0.869
		c0.107,0.391,0.067,0.761-0.137,1.122c-0.253,0.469-0.654,0.712-1.191,0.733c-0.527,0.029-0.957-0.176-1.287-0.606l0.809-0.537
		c0.098,0.127,0.234,0.196,0.42,0.186c0.186-0.01,0.313-0.098,0.391-0.244c0.069-0.127,0.088-0.253,0.059-0.38
		s-0.107-0.225-0.234-0.284l-0.81-0.439C165.585,48.625,165.351,48.333,165.244,47.951z"/>
	<path fill="#777777" d="M175.302,50.566c-0.439,0.323-0.927,0.489-1.464,0.489c-0.673,0-1.249-0.234-1.727-0.712
		s-0.712-1.055-0.712-1.727s0.234-1.249,0.712-1.727c0.478-0.478,1.055-0.712,1.727-0.712c0.547,0,1.036,0.165,1.464,0.489
		l0.489-0.489h0.487v4.879c0,0.664-0.234,1.239-0.712,1.727c-0.478,0.478-1.053,0.712-1.727,0.712c-0.673,0-1.249-0.234-1.727-0.712
		l0.693-0.693c0.284,0.284,0.635,0.43,1.034,0.43c0.401,0,0.752-0.146,1.036-0.43c0.282-0.282,0.429-0.633,0.429-1.034V50.566z
		 M173.838,50.079c0.401,0,0.752-0.146,1.036-0.43c0.282-0.282,0.429-0.633,0.429-1.034s-0.146-0.752-0.429-1.034
		c-0.284-0.284-0.635-0.43-1.036-0.43c-0.399,0-0.75,0.146-1.034,0.43c-0.282,0.282-0.429,0.633-0.429,1.034
		s0.146,0.752,0.429,1.034C173.088,49.933,173.439,50.079,173.838,50.079z"/>
	<path fill="#777777" d="M179.692,51.055c-0.674,0-1.249-0.234-1.727-0.712s-0.712-1.055-0.712-1.727s0.234-1.249,0.712-1.727
		c0.478-0.478,1.053-0.712,1.727-0.712c0.537,0,1.024,0.165,1.464,0.489v-0.489h0.976v4.879h-0.489l-0.487-0.489
		C180.726,50.889,180.237,51.055,179.692,51.055z M179.692,50.079c0.399,0,0.752-0.146,1.034-0.43
		c0.284-0.282,0.43-0.633,0.43-1.034s-0.146-0.752-0.43-1.034c-0.282-0.284-0.635-0.43-1.034-0.43c-0.401,0-0.752,0.146-1.034,0.43
		c-0.284,0.282-0.43,0.633-0.43,1.034s0.146,0.752,0.43,1.034C178.94,49.933,179.291,50.079,179.692,50.079z"/>
	<path fill="#777777" d="M186.569,47.571c-0.284-0.282-0.625-0.42-1.025-0.42c-0.399,0-0.731,0.137-1.015,0.41
		c-0.282,0.274-0.439,0.606-0.448,0.996v2.498h-0.977v-4.879h0.489l0.489,0.489c0.439-0.323,0.926-0.489,1.463-0.489
		c0.8,0,1.454,0.322,1.953,0.976c0.487-0.654,1.141-0.976,1.951-0.976c0.673,0,1.249,0.234,1.727,0.712
		c0.478,0.478,0.712,1.055,0.712,1.727v2.44h-0.976v-2.44c0-0.401-0.146-0.752-0.43-1.034c-0.282-0.284-0.633-0.43-1.034-0.43
		c-0.399,0-0.752,0.146-1.034,0.43c-0.284,0.282-0.43,0.633-0.43,1.034v2.44h-0.976v-2.44
		C187.008,48.195,186.861,47.854,186.569,47.571z"/>
	<path fill="#777777" d="M196.333,49.649l0.692,0.693c-0.477,0.478-1.053,0.712-1.726,0.712c-0.674,0-1.249-0.234-1.727-0.712
		s-0.712-1.055-0.712-1.727s0.234-1.249,0.712-1.727c0.478-0.478,1.053-0.712,1.727-0.712c0.673,0,1.249,0.234,1.726,0.712
		c0.616,0.625,0.84,1.366,0.674,2.216h-3.787c0.079,0.205,0.196,0.389,0.352,0.546c0.282,0.284,0.633,0.43,1.034,0.43
		C195.698,50.079,196.051,49.933,196.333,49.649z M194.265,47.581c-0.157,0.165-0.274,0.341-0.352,0.546h2.772
		c-0.067-0.205-0.186-0.38-0.351-0.546c-0.282-0.284-0.635-0.43-1.034-0.43C194.898,47.151,194.547,47.297,194.265,47.581z"/>
	<path fill="#777777" d="M199.209,46.175l0.489,0.489c0.439-0.323,0.927-0.489,1.464-0.489v0.976c-0.401,0-0.752,0.146-1.036,0.43
		c-0.282,0.282-0.429,0.633-0.429,1.034v2.44h-0.976v-4.879H199.209z"/>
	<path fill="#777777" d="M201.805,47.951c-0.108-0.391-0.069-0.761,0.136-1.122c0.255-0.468,0.654-0.712,1.191-0.731
		c0.527-0.029,0.957,0.176,1.289,0.604l-0.81,0.537c-0.098-0.126-0.234-0.195-0.42-0.184c-0.186,0.009-0.312,0.097-0.391,0.243
		c-0.069,0.127-0.088,0.254-0.059,0.382c0.029,0.126,0.108,0.224,0.234,0.282l0.81,0.439c0.361,0.196,0.595,0.489,0.702,0.869
		c0.108,0.391,0.069,0.761-0.136,1.122c-0.253,0.469-0.654,0.712-1.191,0.733c-0.527,0.029-0.957-0.176-1.289-0.606l0.81-0.537
		c0.098,0.127,0.234,0.196,0.42,0.186s0.312-0.098,0.391-0.244c0.069-0.127,0.088-0.253,0.059-0.38s-0.107-0.225-0.234-0.284
		l-0.81-0.439C202.146,48.625,201.912,48.333,201.805,47.951z"/>
</g>
</svg>
