<?xml version="1.0" encoding="utf-8"?>
<!-- Generator: Adobe Illustrator 17.0.0, SVG Export Plug-In . SVG Version: 6.00 Build 0)  -->
<!DOCTYPE svg PUBLIC "-//W3C//DTD SVG 1.1//EN" "http://www.w3.org/Graphics/SVG/1.1/DTD/svg11.dtd">
<svg version="1.1" id="Capa_1" xmlns="http://www.w3.org/2000/svg" xmlns:xlink="http://www.w3.org/1999/xlink" x="0px" y="0px"
	 width="74.574px" height="43.5px" viewBox="0.072 0.312 74.574 43.5" enable-background="new 0.072 0.312 74.574 43.5"
	 xml:space="preserve">
<path fill="#3498DB" d="M34.113,16.483h0.602v-2.509h0.856l0.843-6.658h-10.31v16.007c0,2.731-1.245,4.263-2.301,5.074
	c-1.208,0.956-2.725,1.441-4.507,1.441c-1.783,0-3.308-0.49-4.541-1.466c-1.034-0.795-2.267-2.316-2.267-5.049V7.315H2.119v16.007
	c0,4.053,1.117,7.466,3.397,10.372h0.046v-1.197H9.15v3.076h0.439v1.894c0.599,0.397,1.221,0.748,1.861,1.058v-0.586h0.116V35.89
	h0.39v2.049h0.592v0.873h2.24v0.895c0.416,0.098,0.84,0.18,1.272,0.249v-0.042h1.584v-3.786h0.592v-2.899h3.062v2.899h0.592v2.67
	h3.295v0.541c0.355-0.115,0.703-0.243,1.046-0.381V38.14h0.879v-1.046h2.477c1.045-0.764,2.019-1.667,2.922-2.719l0.298-0.347h1.306
	V16.483z"/>
<path fill="#00B16A" d="M72.896,19.322c0-5.061-1.746-9.268-5.339-12.862C63.963,2.867,59.768,1.12,54.731,1.12
	c-5.367,0-9.757,1.929-13.419,5.896l-0.296,0.32h-4.258l0.84,6.638h0.999v2.509h0.479V39.6h0.566v0.904h0.775v2.84h0.42v-0.71h0.904
	v-0.783h1.678v-3.236h0.871v-0.371v-0.871h0.839v-2.905h0.403v-0.839h1.243v0.839h1.178v-0.403h0.888v0.403h0.645v3.776h0.42v-0.194
	v-0.936h1.194v0.936h0.842v0.797h0.434L52.81,39.6v0.489c0.615,0.09,1.253,0.14,1.922,0.14c0.005,0,0.01,0,0.015,0v-3.371h3.841
	v1.759h1.42V39.5c0.162-0.048,0.321-0.103,0.481-0.155l0.002,0.012c4.431-1.096,7.511-4.509,9.279-7.094
	c0.171-0.243,0.338-0.489,0.495-0.737v-0.016c0.097-0.154,0.187-0.301,0.273-0.445v0.011c0.025-0.042,0.045-0.086,0.069-0.128
	c0.641-1.083,0.908-1.818,0.908-1.818c0.922-2.167,1.382-4.522,1.382-7.102V19.322z M54.731,29.859c-2.141,0-4.002-0.775-5.53-2.303
	c-1.527-1.527-2.302-3.387-2.302-5.529v-2.706c0-2.141,0.775-4.001,2.297-5.523c1.534-1.508,3.396-2.272,5.535-2.272
	c2.114,0,3.96,0.76,5.48,2.252c1.536,1.537,2.315,3.402,2.315,5.542v2.706c0,2.141-0.775,4.001-2.303,5.529
	C58.696,29.084,56.848,29.859,54.731,29.859z"/>
</svg>
