<?xml version="1.0" encoding="utf-8"?>
<!-- Generator: Adobe Illustrator 17.0.0, SVG Export Plug-In . SVG Version: 6.00 Build 0)  -->
<!DOCTYPE svg PUBLIC "-//W3C//DTD SVG 1.1//EN" "http://www.w3.org/Graphics/SVG/1.1/DTD/svg11.dtd">
<svg version="1.1" id="Capa_1" xmlns="http://www.w3.org/2000/svg" xmlns:xlink="http://www.w3.org/1999/xlink" x="0px" y="0px"
	 width="12px" height="12px" viewBox="0 0 12 12" enable-background="new 0 0 12 12" xml:space="preserve">
<g>
	<g>
		<path fill="#F45151" d="M7.521,6l3.552-3.734c0.16-0.168,0.16-0.439,0-0.607L10.13,0.668C9.97,0.5,9.712,0.5,9.552,0.668L6,4.401
			L2.448,0.668C2.288,0.5,2.03,0.5,1.87,0.668L0.927,1.659c-0.16,0.168-0.16,0.439,0,0.607L4.479,6L0.927,9.734
			c-0.16,0.168-0.16,0.439,0,0.607l0.943,0.992c0.16,0.168,0.418,0.168,0.578,0L6,7.599l3.552,3.734
			c0.159,0.168,0.418,0.168,0.578,0l0.943-0.992c0.16-0.168,0.16-0.439,0-0.607L7.521,6z"/>
	</g>
</g>
</svg>
